<?xml version="1.0" encoding="utf-8"?>
<!-- Generator: Adobe Illustrator 23.1.1, SVG Export Plug-In . SVG Version: 6.00 Build 0)  -->
<svg version="1.1" id="Layer_1" xmlns="http://www.w3.org/2000/svg" xmlns:xlink="http://www.w3.org/1999/xlink" x="0px" y="0px"
	 viewBox="0 0 330 56" style="enable-background:new 0 0 330 56;" xml:space="preserve">
<style type="text/css">
	.st0{display:none;enable-background:new    ;}
	.st1{display:inline;fill:#FFFFFF;}
	.st2{fill:#FFFFFF;}
</style>
<g class="st0">
	<path class="st1" d="M7.6-14.8c-2.8-2.7-4.2-5.9-4.2-9.7h2.8c0,3.1,1.1,5.7,3.4,7.9s5,3.3,8.2,3.3c3.5,0,6.5-0.9,9-2.8
		c2.5-1.9,3.7-4.1,3.7-6.7c0-2.3-1.1-4.2-3.3-5.7c-2.1-1.5-5-2.5-8.6-2.8c-4.4-0.4-7.9-1.6-10.6-3.8c-2.6-2.1-4-4.8-4-7.9
		s1.3-5.7,4-7.9c2.7-2.2,5.9-3.3,9.7-3.3c4.1,0,7.6,1.1,10.5,3.4s4.3,5,4.3,8.2h-2.8c0-2.5-1.2-4.6-3.5-6.3
		c-2.3-1.8-5.1-2.6-8.5-2.6c-3,0-5.6,0.8-7.8,2.5c-2.1,1.6-3.2,3.6-3.2,6c0,2.3,1.1,4.3,3.3,5.8c2.3,1.6,5.3,2.5,9,2.9
		c4.4,0.4,7.8,1.6,10.4,3.7s3.8,4.7,3.8,7.7c0,3.3-1.5,6.2-4.5,8.6s-6.7,3.5-10.9,3.5C13.8-10.8,10.4-12.1,7.6-14.8z"/>
	<path class="st1" d="M40.4-11.8v-41.3H59c2.7,0,5,1.1,6.8,3.3c1.9,2.2,2.9,4.8,2.9,7.9c0,3.2-1,5.9-2.9,8.2
		c-1.9,2.3-4.1,3.4-6.8,3.4H43.1v18.5C43.1-11.8,40.4-11.8,40.4-11.8z M58.5-33c2,0,3.8-0.8,5.2-2.5c1.4-1.6,2.2-3.6,2.2-6
		c0-2.5-0.7-4.6-2.2-6.3c-1.4-1.7-3.2-2.6-5.2-2.6H43.1V-33H58.5z"/>
	<path class="st1" d="M87.2-11.8v-18L71.4-53.1h4L88.8-33l13-20.1h4L90.4-29.8v17.9h-3.2V-11.8z"/>
	<path class="st1" d="M111.4-11.8v-41.3h19.7c2.8,0,5.2,1.1,7.2,3.2c2,2.1,3,4.6,3,7.7c0,2.6-0.6,4.9-1.8,6.9
		c-1.3,1.9-2.8,3.1-4.7,3.4c1.7,0.5,3.1,1.9,4.2,4.4c1.1,2.5,1.6,5.4,1.6,8.9c0,1.9,0,3.4,0.1,4.4c0.1,1.2,0.3,2,0.6,2.4h-2.8
		c-0.5-0.6-0.8-1.6-0.9-3.1l-0.2-5.9c0-2.8-0.7-5.2-2-7.2c-1.3-1.9-2.9-2.9-4.8-2.9h-16.4v19.1C114.3-11.8,111.4-11.8,111.4-11.8z
		 M130.6-33.5c2.2,0,4.1-0.8,5.6-2.5c1.5-1.6,2.3-3.6,2.3-6c0-2.3-0.8-4.3-2.3-6c-1.6-1.6-3.5-2.4-5.6-2.4h-16.4v16.9H130.6z"/>
	<path class="st1" d="M149.6-11.8v-41.3h26.9v2.7h-24.1v15.9h22v2.6h-22v17.5h24.1v2.6C176.6-11.8,149.6-11.8,149.6-11.8z"/>
</g>
<g>
	<g>
		<path class="st2" d="M14.8,30v18.8H9.4V6.3h16.5c8.7,0,13.3,4.7,13.3,11.3c0,5.5-3.2,8.9-7.3,10c3.5,0.9,6.5,3.5,6.5,10.9v1.8
			c0,2.9-0.1,6.7,0.6,8.4h-5.3C33,47,33,43.6,33,39.7v-0.9c0-6.1-1.7-8.8-9.4-8.8H14.8z M14.8,25.4h9.3c6.6,0,9.4-2.5,9.4-7.3
			c0-4.6-3-7.1-8.8-7.1h-10V25.4z"/>
		<path class="st2" d="M58.4,36.5c0,9.6-3.8,12.9-10.8,12.9c-1.7,0-3.2-0.2-4.4-0.4v-4.6c0.8,0.2,2.6,0.3,3.9,0.3
			c5.1,0,5.8-3.8,5.8-8V6.3h5.5V36.5z"/>
		<path class="st2" d="M81.7,6.3h16.1c8.2,0,13.9,4.6,13.9,12.3c0,8.2-5.9,12.6-14.2,12.6H87.2v17.5h-5.5V6.3z M87.2,26.7h10
			c5.9,0,8.8-2.9,8.8-7.9c0-5.2-3.5-7.8-8.6-7.8H87.2V26.7z"/>
		<path class="st2" d="M123.7,6.3v25.6c0,10.1,5.6,12.8,11,12.8c6.4,0,11-2.9,11-12.8V6.3h5.5v25.3c0,13.7-7.6,17.7-16.6,17.7
			c-8.8,0-16.5-4.3-16.5-17.3V6.3H123.7z"/>
		<path class="st2" d="M160.5,6.3h16.1c8.2,0,13.9,4.6,13.9,12.3c0,8.2-5.9,12.6-14.2,12.6H166v17.5h-5.5V6.3z M166,26.7h10
			c5.9,0,8.8-2.9,8.8-7.9c0-5.2-3.5-7.8-8.6-7.8H166V26.7z"/>
		<path class="st2" d="M202.5,6.3v25.6c0,10.1,5.6,12.8,11,12.8c6.4,0,11-2.9,11-12.8V6.3h5.5v25.3c0,13.7-7.6,17.7-16.6,17.7
			c-8.8,0-16.5-4.3-16.5-17.3V6.3H202.5z"/>
		<path class="st2" d="M239.3,48.8V6.3h7.3c6.1,9.9,19.5,31.2,21.9,35.9h0.1c-0.4-5.5-0.4-12.2-0.4-19.1V6.3h5.2v42.5h-6.8
			c-5.7-9.3-19.6-32.1-22.3-36.9h-0.1c0.3,4.9,0.3,12,0.3,19.7v17.2H239.3z"/>
		<path class="st2" d="M288.3,6.3v25.6c0,10.1,5.6,12.8,11,12.8c6.4,0,11-2.9,11-12.8V6.3h5.5v25.3c0,13.7-7.6,17.7-16.6,17.7
			c-8.8,0-16.5-4.3-16.5-17.3V6.3H288.3z"/>
	</g>
</g>
</svg>
