<?xml version="1.0" encoding="utf-8"?>
<!-- Generator: Adobe Illustrator 23.1.1, SVG Export Plug-In . SVG Version: 6.00 Build 0)  -->
<svg version="1.1" id="logo" xmlns="http://www.w3.org/2000/svg" xmlns:xlink="http://www.w3.org/1999/xlink" x="0px" y="0px"
	 viewBox="0 0 366 200" style="enable-background:new 0 0 366 200;" xml:space="preserve">
<style type="text/css">
	.st0{fill:#F12639;}
	.st1{enable-background:new    ;}
	.st2{display:none;fill:#FFFFFF;}
	.st3{fill:#FFFFFF;}
</style>
<rect id="logo_bg" class="st0" width="366" height="200"/>
<g class="st1">
	<path class="st2" d="M104.1,130.5c-2.8-2.6-4.2-5.9-4.2-9.7h2.8c0,3.1,1.1,5.7,3.4,7.9s5,3.3,8.2,3.3c3.5,0,6.5-0.9,9-2.8
		c2.5-1.9,3.7-4.1,3.7-6.7c0-2.3-1.1-4.2-3.3-5.7c-2.1-1.5-5-2.5-8.6-2.8c-4.4-0.4-7.9-1.6-10.6-3.8c-2.6-2.1-4-4.8-4-7.9
		s1.3-5.7,4-7.9c2.7-2.2,5.9-3.3,9.7-3.3c4.1,0,7.6,1.1,10.5,3.4s4.3,5,4.3,8.2h-2.8c0-2.5-1.2-4.6-3.5-6.3
		c-2.3-1.8-5.1-2.6-8.5-2.6c-3,0-5.6,0.8-7.8,2.5c-2.1,1.6-3.2,3.6-3.2,6c0,2.3,1.1,4.3,3.3,5.8c2.3,1.6,5.3,2.5,9,2.9
		c4.3,0.4,7.7,1.6,10.3,3.7s3.8,4.7,3.8,7.7c0,3.3-1.5,6.2-4.5,8.6s-6.7,3.5-10.9,3.5C110.2,134.6,106.9,133.2,104.1,130.5z"/>
	<path class="st2" d="M135.9,133.5V92.3h18.6c2.7,0,5,1.1,6.8,3.3c1.9,2.2,2.9,4.8,2.9,7.9c0,3.2-1,5.9-2.9,8.2
		c-1.9,2.3-4.1,3.4-6.8,3.4h-15.9v18.5h-2.7V133.5z M154,112.4c2,0,3.8-0.8,5.2-2.5c1.4-1.6,2.2-3.6,2.2-6c0-2.5-0.7-4.6-2.2-6.3
		c-1.4-1.7-3.2-2.6-5.2-2.6h-15.4v17.4H154z"/>
	<path class="st2" d="M181.8,133.5v-17.9l-15.9-23.3h4l13.4,20.1l13-20.1h4L185,115.6v17.9H181.8z"/>
	<path class="st2" d="M205,133.5V92.3h19.7c2.8,0,5.2,1.1,7.2,3.2s3,4.6,3,7.7c0,2.6-0.6,4.9-1.8,6.9c-1.3,1.9-2.8,3.1-4.7,3.4
		c1.7,0.5,3.1,1.9,4.2,4.4c1.1,2.5,1.6,5.4,1.6,8.9c0,1.9,0,3.4,0.1,4.4c0.1,1.2,0.3,2,0.6,2.4h-2.8c-0.5-0.6-0.8-1.6-0.9-3.1
		l-0.2-5.9c0-2.8-0.7-5.2-2-7.2c-1.3-1.9-2.9-2.9-4.8-2.9h-16.4v19.1L205,133.5L205,133.5z M224.2,111.9c2.2,0,4.1-0.8,5.6-2.5
		c1.5-1.6,2.3-3.6,2.3-6c0-2.3-0.8-4.3-2.3-6c-1.6-1.6-3.5-2.4-5.6-2.4h-16.4v16.9H224.2z"/>
	<path class="st2" d="M242.2,133.5V92.3h26.9V95H245v15.9h22.1v2.6H245V131h24.1v2.6h-26.9V133.5z"/>
</g>
<g>
	<g>
		<path class="st3" d="M39.8,113.5v17.8h-2.3V93.6h15.6c6.9,0,11.9,3.3,11.9,9.7c0,4.6-2.3,8-7.6,9.1c3.8,0.8,6.9,3.1,6.9,10v1.1
			c0,3.6,0,6.6,0.4,7.9h-2.4c-0.5-1.7-0.4-4.5-0.4-7.7v-0.9c0-6.5-2.4-9.2-10.4-9.2H39.8z M39.8,111.4h12c6.9,0,10.7-2.3,10.7-8
			c0-5.1-3.6-7.7-10-7.7H39.8V111.4z"/>
		<path class="st3" d="M82,119.8c0,7.8-2.5,12.2-9.7,12.2c-1.8,0-3.2-0.2-4.1-0.4v-2.2c1.2,0.3,2.7,0.4,4.3,0.4
			c5.6,0,7.1-4.2,7.1-9.9V93.6H82V119.8z"/>
		<path class="st3" d="M104.9,93.6h15.6c8.3,0,12.3,4.6,12.3,10.4c0,6.8-4.4,10.8-12.3,10.8h-13.3v16.5h-2.3V93.6z M107.2,112.7
			h13.1c6.3,0,10.2-2.6,10.2-8.6c0-4.9-3.4-8.3-10.1-8.3h-13.2V112.7z"/>
		<path class="st3" d="M141.3,93.6v22c0,11.3,6.8,14.4,13.1,14.4c7.9,0,12.9-3.8,12.9-14.4V93.6h2.3v21.7c0,12.4-6.2,16.8-15.3,16.8
			c-9.1,0-15.3-4.9-15.3-16.2V93.6H141.3z"/>
		<path class="st3" d="M178.8,93.6h15.6c8.3,0,12.3,4.6,12.3,10.4c0,6.8-4.4,10.8-12.3,10.8h-13.3v16.5h-2.3V93.6z M181.1,112.7
			h13.1c6.3,0,10.2-2.6,10.2-8.6c0-4.9-3.4-8.3-10.1-8.3h-13.2V112.7z"/>
		<path class="st3" d="M215.2,93.6v22c0,11.3,6.8,14.4,13.1,14.4c7.9,0,12.9-3.8,12.9-14.4V93.6h2.3v21.7c0,12.4-6.2,16.8-15.3,16.8
			c-9.1,0-15.3-4.9-15.3-16.2V93.6H215.2z"/>
		<path class="st3" d="M252.7,131.4V93.6h2.9c7.2,9.4,24.1,31.3,26.4,34.9l0.1,0c-0.3-4.1-0.2-11-0.2-17.1V93.6h2.3v37.8h-2.7
			c-6.8-8.9-24.1-31.7-26.6-35.3l-0.1,0c0.2,5,0.2,10.6,0.2,17.3v18.1H252.7z"/>
		<path class="st3" d="M295.6,93.6v22c0,11.3,6.8,14.4,13.1,14.4c7.9,0,12.9-3.8,12.9-14.4V93.6h2.3v21.7c0,12.4-6.2,16.8-15.3,16.8
			c-9.1,0-15.3-4.9-15.3-16.2V93.6H295.6z"/>
	</g>
</g>
</svg>
